<?xml version="1.0" encoding="utf-8"?>
<!-- Generator: Adobe Illustrator 16.0.0, SVG Export Plug-In . SVG Version: 6.00 Build 0)  -->
<!DOCTYPE svg PUBLIC "-//W3C//DTD SVG 1.1//EN" "http://www.w3.org/Graphics/SVG/1.1/DTD/svg11.dtd">
<svg version="1.1" id="Layer_1" xmlns="http://www.w3.org/2000/svg" xmlns:xlink="http://www.w3.org/1999/xlink" x="0px" y="0px"
	 width="485px" height="140px" viewBox="0 0 485 140" enable-background="new 0 0 485 140" xml:space="preserve">
<g>
	<g>
		<path fill="#2E3192" d="M12.959,12.159h14.852v29.508l27.387-29.508h17.938L45.65,40.797l28.736,38.861h-17.84L35.621,50.922
			l-7.811,8.101v20.635H12.959V12.159z"/>
		<path fill="#2E3192" d="M83.352,12.159h50.822v13.21H98.012v13.694h31.818v13.21H98.012v14.175h36.643v13.21H83.352V12.159z"/>
		<path fill="#2E3192" d="M166.957,53.044l-25.941-40.885h17.359l16.104,27.096l16.393-27.096h16.875l-25.938,40.595v26.904h-14.852
			V53.044z"/>
		<path fill="#2E3192" d="M241.107,80.624c-5.143,0-10.189-0.886-15.139-2.653c-4.951-1.768-9.451-4.482-13.498-8.147l8.773-10.51
			c3.084,2.505,6.25,4.5,9.498,5.979c3.246,1.478,6.797,2.218,10.656,2.218c3.084,0,5.479-0.564,7.182-1.688
			c1.703-1.126,2.557-2.684,2.557-4.677v-0.194c0-0.965-0.178-1.814-0.533-2.555c-0.354-0.74-1.029-1.431-2.029-2.073
			c-0.998-0.642-2.387-1.287-4.158-1.928c-1.773-0.642-4.076-1.317-6.91-2.026c-3.42-0.833-6.512-1.768-9.285-2.795
			c-2.771-1.027-5.123-2.298-7.057-3.81c-1.934-1.509-3.432-3.391-4.496-5.643c-1.064-2.249-1.598-5.044-1.598-8.388v-0.191
			c0-3.087,0.574-5.867,1.725-8.342c1.152-2.474,2.764-4.612,4.84-6.413c2.076-1.799,4.555-3.181,7.436-4.146
			s6.059-1.447,9.529-1.447c4.951,0,9.498,0.74,13.645,2.218c4.146,1.48,7.957,3.6,11.428,6.364l-7.713,11.186
			c-3.023-2.058-5.979-3.68-8.873-4.871c-2.893-1.188-5.783-1.783-8.678-1.783c-2.893,0-5.062,0.564-6.51,1.688
			c-1.445,1.126-2.168,2.523-2.168,4.195v0.192c0,1.095,0.209,2.042,0.627,2.847c0.418,0.802,1.174,1.527,2.271,2.169
			c1.096,0.642,2.596,1.252,4.496,1.833c1.902,0.577,4.301,1.252,7.205,2.024c3.414,0.9,6.459,1.913,9.137,3.039
			c2.674,1.125,4.93,2.474,6.768,4.05c1.834,1.574,3.223,3.421,4.156,5.544c0.934,2.122,1.402,4.661,1.402,7.617v0.194
			c0,3.341-0.607,6.315-1.818,8.918c-1.217,2.604-2.906,4.791-5.078,6.559c-2.174,1.768-4.766,3.119-7.775,4.048
			C248.109,80.155,244.773,80.624,241.107,80.624z"/>
		<path fill="#2E3192" d="M311.5,80.815c-5.207,0-9.996-0.917-14.367-2.749c-4.373-1.832-8.146-4.307-11.33-7.425
			c-3.182-3.116-5.658-6.781-7.426-10.992c-1.768-4.208-2.65-8.727-2.65-13.549v-0.192c0-4.822,0.898-9.338,2.699-13.549
			c1.799-4.208,4.291-7.907,7.473-11.087c3.184-3.184,6.975-5.691,11.381-7.521c4.402-1.832,9.207-2.749,14.416-2.749
			c5.207,0,9.994,0.917,14.365,2.749c4.373,1.83,8.148,4.307,11.332,7.423c3.18,3.119,5.654,6.784,7.426,10.995
			c1.768,4.211,2.65,8.725,2.65,13.546v0.194c0,4.822-0.902,9.338-2.701,13.549c-1.801,4.211-4.291,7.907-7.471,11.087
			c-3.184,3.183-6.979,5.689-11.381,7.521S316.707,80.815,311.5,80.815z M311.695,67.124c2.955,0,5.688-0.546,8.195-1.641
			c2.506-1.092,4.645-2.604,6.412-4.532s3.148-4.162,4.145-6.701c0.998-2.539,1.496-5.256,1.496-8.15v-0.192
			c0-2.894-0.498-5.624-1.496-8.196c-0.996-2.57-2.408-4.822-4.24-6.75c-1.834-1.928-4.002-3.455-6.51-4.581
			c-2.508-1.124-5.242-1.688-8.197-1.688c-3.023,0-5.77,0.549-8.242,1.641c-2.479,1.092-4.598,2.604-6.365,4.532
			c-1.77,1.928-3.152,4.162-4.146,6.701c-0.998,2.542-1.496,5.256-1.496,8.147v0.194c0,2.894,0.498,5.627,1.496,8.197
			c0.994,2.57,2.41,4.822,4.242,6.75s3.986,3.455,6.461,4.581C305.922,66.56,308.672,67.124,311.695,67.124z"/>
		<path fill="#2E3192" d="M360.678,12.159h51.396v13.404h-36.549v14.558h32.207v13.404h-32.207v26.132h-14.848V12.159z"/>
		<path fill="#2E3192" d="M439.652,25.851h-20.539V12.159h55.928v13.691h-20.539v53.808h-14.85V25.851z"/>
	</g>
	<g>
		<path fill="#2E3192" d="M25.025,128.582c-1.838,0-3.496-0.267-4.979-0.792c-1.486-0.525-2.754-1.317-3.805-2.368
			c-1.055-1.053-1.865-2.354-2.432-3.905c-0.566-1.55-0.852-3.354-0.852-5.406V99.797H17.9v16.114c0,2.642,0.637,4.653,1.912,6.03
			c1.273,1.377,3.039,2.062,5.293,2.062c2.227,0,3.977-0.657,5.252-1.982c1.275-1.322,1.914-3.29,1.914-5.911V99.797h4.939v16.072
			c0,2.104-0.291,3.952-0.869,5.547c-0.584,1.592-1.398,2.919-2.451,3.985c-1.055,1.066-2.328,1.863-3.826,2.389
			S26.889,128.582,25.025,128.582z"/>
		<path fill="#2E3192" d="M46.074,99.797h4.607l15.148,19.592V99.797h4.938v28.338h-4.16l-15.592-20.162v20.162h-4.941V99.797z"/>
		<path fill="#2E3192" d="M80.08,99.797h4.939v23.845h14.896v4.493H80.08V99.797z"/>
		<path fill="#2E3192" d="M120.684,128.621c-2.184,0-4.182-0.386-5.988-1.154c-1.812-0.769-3.365-1.814-4.66-3.14
			c-1.293-1.319-2.305-2.865-3.035-4.635c-0.727-1.766-1.092-3.649-1.092-5.646v-0.08c0-1.998,0.365-3.88,1.092-5.649
			c0.73-1.766,1.754-3.318,3.078-4.656c1.322-1.333,2.887-2.395,4.693-3.176c1.807-0.784,3.805-1.173,5.992-1.173
			s4.186,0.384,5.992,1.152c1.809,0.769,3.359,1.816,4.656,3.139c1.297,1.32,2.305,2.865,3.035,4.636
			c0.73,1.768,1.092,3.649,1.092,5.645v0.083c0,1.998-0.361,3.877-1.092,5.647c-0.73,1.768-1.754,3.318-3.074,4.656
			c-1.326,1.333-2.889,2.394-4.697,3.176C124.865,128.23,122.871,128.621,120.684,128.621z M120.764,124.045
			c1.398,0,2.682-0.264,3.85-0.789s2.17-1.239,3.004-2.146c0.834-0.903,1.482-1.965,1.953-3.179c0.473-1.214,0.711-2.51,0.711-3.885
			v-0.08c0-1.379-0.238-2.679-0.711-3.908c-0.471-1.227-1.127-2.293-1.975-3.198c-0.846-0.903-1.859-1.626-3.041-2.164
			c-1.186-0.541-2.473-0.811-3.871-0.811s-2.682,0.265-3.85,0.79s-2.17,1.239-3.004,2.146c-0.834,0.903-1.486,1.964-1.953,3.178
			c-0.473,1.214-0.707,2.511-0.707,3.885v0.083c0,1.377,0.234,2.677,0.707,3.905c0.467,1.228,1.127,2.294,1.975,3.199
			c0.846,0.903,1.859,1.626,3.043,2.164C118.078,123.776,119.365,124.045,120.764,124.045z"/>
		<path fill="#2E3192" d="M156.793,128.621c-2.078,0-3.992-0.378-5.748-1.134c-1.754-0.756-3.277-1.788-4.564-3.098
			c-1.293-1.31-2.301-2.854-3.037-4.636c-0.734-1.78-1.102-3.683-1.102-5.707v-0.08c0-2.023,0.361-3.921,1.082-5.691
			c0.719-1.765,1.732-3.317,3.035-4.65c1.303-1.338,2.844-2.392,4.627-3.16c1.781-0.769,3.75-1.152,5.91-1.152
			c1.295,0,2.477,0.106,3.543,0.321c1.066,0.218,2.045,0.522,2.934,0.911c0.895,0.391,1.715,0.859,2.471,1.397
			c0.758,0.541,1.473,1.134,2.145,1.78l-3.199,3.684c-1.131-1.051-2.334-1.902-3.602-2.55c-1.27-0.646-2.713-0.971-4.33-0.971
			c-1.352,0-2.596,0.265-3.746,0.79c-1.148,0.525-2.137,1.239-2.977,2.146c-0.836,0.903-1.482,1.964-1.941,3.178
			s-0.688,2.511-0.688,3.885v0.083c0,1.377,0.229,2.677,0.688,3.905c0.459,1.228,1.105,2.302,1.941,3.22
			c0.84,0.917,1.828,1.639,2.977,2.164c1.15,0.525,2.395,0.789,3.746,0.789c1.727,0,3.211-0.331,4.453-0.988
			c1.24-0.662,2.469-1.561,3.684-2.694l3.195,3.237c-0.727,0.785-1.49,1.479-2.285,2.087c-0.797,0.605-1.652,1.131-2.568,1.578
			c-0.92,0.442-1.926,0.782-3.02,1.013C159.324,128.505,158.115,128.621,156.793,128.621z"/>
		<path fill="#2E3192" d="M175.496,99.797h4.939v14.25l13.482-14.25h6.113l-11.781,12.185l12.305,16.153h-6.031l-9.678-12.752
			l-4.41,4.534v8.218h-4.939V99.797z"/>
		<path fill="#2E3192" d="M221.041,99.797h11.172c1.645,0,3.133,0.223,4.475,0.668c1.336,0.445,2.469,1.087,3.398,1.926
			c0.928,0.836,1.648,1.835,2.145,2.994c0.498,1.159,0.752,2.456,0.752,3.885v0.08c0,1.595-0.299,2.989-0.896,4.19
			c-0.596,1.203-1.406,2.208-2.434,3.018c-1.029,0.808-2.23,1.424-3.611,1.843c-1.381,0.417-2.855,0.627-4.426,0.627h-5.635v9.107
			h-4.939V99.797z M231.785,114.531c1.895,0,3.393-0.471,4.49-1.421c1.096-0.947,1.645-2.166,1.645-3.657v-0.083
			c0-1.68-0.555-2.947-1.664-3.799c-1.113-0.854-2.602-1.281-4.471-1.281h-5.805v10.241H231.785z"/>
		<path fill="#2E3192" d="M263.627,128.621c-2.188,0-4.186-0.386-5.992-1.154c-1.805-0.769-3.361-1.814-4.654-3.14
			c-1.295-1.319-2.309-2.865-3.039-4.635c-0.725-1.766-1.088-3.649-1.088-5.646v-0.08c0-1.998,0.363-3.88,1.088-5.649
			c0.73-1.766,1.754-3.318,3.08-4.656c1.32-1.333,2.885-2.395,4.697-3.176c1.807-0.784,3.801-1.173,5.988-1.173
			s4.186,0.384,5.992,1.152s3.361,1.816,4.656,3.139c1.293,1.32,2.303,2.865,3.033,4.636c0.73,1.768,1.094,3.649,1.094,5.645v0.083
			c0,1.998-0.363,3.877-1.094,5.647c-0.73,1.768-1.75,3.318-3.074,4.656c-1.326,1.333-2.893,2.394-4.697,3.176
			C267.811,128.23,265.814,128.621,263.627,128.621z M263.707,124.045c1.398,0,2.682-0.264,3.852-0.789s2.166-1.239,3.002-2.146
			c0.832-0.903,1.482-1.965,1.957-3.179c0.467-1.214,0.703-2.51,0.703-3.885v-0.08c0-1.379-0.236-2.679-0.703-3.908
			c-0.475-1.227-1.129-2.293-1.977-3.198c-0.848-0.903-1.865-1.626-3.045-2.164c-1.18-0.541-2.475-0.811-3.869-0.811
			c-1.396,0-2.682,0.265-3.852,0.79s-2.17,1.239-3.002,2.146c-0.83,0.903-1.482,1.964-1.957,3.178
			c-0.471,1.214-0.703,2.511-0.703,3.885v0.083c0,1.377,0.232,2.677,0.703,3.905c0.475,1.228,1.131,2.294,1.979,3.199
			c0.846,0.903,1.863,1.626,3.043,2.164C261.018,123.776,262.312,124.045,263.707,124.045z"/>
		<path fill="#2E3192" d="M293.502,104.411h-8.988v-4.614h22.996v4.614h-8.986v23.724h-5.021V104.411z"/>
		<path fill="#2E3192" d="M314.801,99.797h20.969v4.493h-16.031v7.288h14.209v4.493h-14.209v7.57h16.23v4.493h-21.168V99.797z"/>
		<path fill="#2E3192" d="M343.945,99.797h4.604l15.148,19.592V99.797h4.939v28.338h-4.156l-15.598-20.162v20.162h-4.938V99.797z"/>
		<path fill="#2E3192" d="M384.91,104.411h-8.982v-4.614h22.99v4.614h-8.988v23.724h-5.02V104.411z"/>
		<path fill="#2E3192" d="M406.49,99.797h4.939v28.338h-4.939V99.797z"/>
		<path fill="#2E3192" d="M431.104,99.595h4.615l12.471,28.54h-5.262l-2.877-6.844h-13.404l-2.908,6.844h-5.104L431.104,99.595z
			 M438.229,116.881l-4.896-11.336l-4.859,11.336H438.229z"/>
		<path fill="#2E3192" d="M455.07,99.797h4.938v23.845h14.898v4.493H455.07V99.797z"/>
	</g>
</g>
</svg>
